<svg xmlns="http://www.w3.org/2000/svg" xmlns:xlink="http://www.w3.org/1999/xlink" width="500" zoomAndPan="magnify" viewBox="0 0 375 374.999991" height="500" preserveAspectRatio="xMidYMid meet" version="1.0"><defs><g/><clipPath id="c188910d90"><path d="M 90.527344 147 L 139 147 L 139 173 L 90.527344 173 Z M 90.527344 147 " clip-rule="nonzero"/></clipPath><clipPath id="41a506f978"><path d="M 139 51 L 284.777344 51 L 284.777344 219.988281 L 139 219.988281 Z M 139 51 " clip-rule="nonzero"/></clipPath><clipPath id="92f2347492"><path d="M 227 29.488281 L 267 29.488281 L 267 69 L 227 69 Z M 227 29.488281 " clip-rule="nonzero"/></clipPath></defs><rect x="-37.5" width="450" fill="#ffffff" y="-37.499999" height="449.999989" fill-opacity="1"/><rect x="-37.5" width="450" fill="#ffffff" y="-37.499999" height="449.999989" fill-opacity="1"/><rect x="-37.5" width="450" fill="#ffffff" y="-37.499999" height="449.999989" fill-opacity="1"/><g clip-path="url(#c188910d90)"><path fill="#399b53" d="M 101.085938 147.648438 L 90.597656 164.671875 C 110.144531 161.59375 126.046875 164.230469 138.273438 172.597656 C 129.390625 160.835938 116.988281 152.511719 101.070312 147.648438 Z M 101.085938 147.648438 " fill-opacity="1" fill-rule="evenodd"/></g><path fill="#000000" d="M 92.453125 138.726562 C 115.179688 141.777344 132.824219 152.90625 145.371094 172.109375 C 142.234375 152.71875 132.382812 137.273438 115.785156 125.746094 Z M 92.453125 138.726562 " fill-opacity="1" fill-rule="evenodd"/><path fill="#399b53" d="M 103.953125 106.863281 C 134.949219 126.789062 151.738281 154.21875 154.335938 189.117188 C 159.515625 161.59375 151.785156 136.929688 131.179688 115.121094 C 148.441406 110.179688 161.746094 98.492188 171.078125 80.066406 C 201.851562 133.5 192.046875 176.199219 141.664062 208.175781 C 205.480469 186.132812 215.0625 118.925781 170.410156 59.160156 C 160.464844 92.367188 138.320312 108.265625 103.96875 106.863281 Z M 103.953125 106.863281 " fill-opacity="1" fill-rule="evenodd"/><g clip-path="url(#41a506f978)"><path fill="#000000" d="M 180.390625 51.753906 C 233.546875 118.816406 216.644531 194.785156 139.8125 219.988281 C 220.367188 215.34375 268.660156 164.039062 284.722656 66.074219 C 263.527344 94.71875 228.746094 89.949219 180.390625 51.753906 Z M 180.390625 51.753906 " fill-opacity="1" fill-rule="evenodd"/></g><g clip-path="url(#92f2347492)"><path fill="#000000" d="M 246.835938 68.253906 C 257.542969 68.253906 266.285156 59.554688 266.285156 48.863281 C 266.285156 38.1875 257.558594 29.472656 246.835938 29.472656 C 236.128906 29.472656 227.382812 38.171875 227.382812 48.863281 C 227.382812 59.539062 236.128906 68.253906 246.835938 68.253906 Z M 246.835938 68.253906 " fill-opacity="1" fill-rule="evenodd"/></g><path fill="#399b53" d="M 171.679688 130.992188 C 172.3125 132.097656 171.980469 133.183594 170.648438 134.242188 L 168.164062 129.933594 C 169.175781 129.757812 169.953125 129.757812 170.460938 129.917969 C 170.964844 130.089844 171.378906 130.4375 171.695312 130.976562 Z M 162.160156 126.269531 C 161.128906 126.441406 160.386719 126.441406 159.894531 126.269531 C 159.402344 126.078125 159.023438 125.765625 158.753906 125.289062 C 158.46875 124.800781 158.390625 124.28125 158.53125 123.742188 C 158.675781 123.207031 159.070312 122.667969 159.769531 122.132812 L 162.175781 126.285156 Z M 176.050781 128.164062 C 175.050781 126.441406 173.722656 125.367188 172.058594 124.941406 C 170.394531 124.515625 168.210938 124.660156 165.5 125.367188 L 162.808594 120.726562 C 163.554688 120.503906 164.34375 120.378906 165.167969 120.332031 C 165.992188 120.285156 166.832031 120.285156 167.6875 120.347656 L 167.671875 115.5625 C 166.484375 115.453125 165.3125 115.484375 164.15625 115.640625 C 163 115.800781 161.828125 116.117188 160.609375 116.589844 L 159.546875 114.742188 L 156.332031 116.589844 L 157.359375 118.375 C 156.457031 119.035156 155.699219 119.746094 155.078125 120.535156 C 154.460938 121.3125 154.019531 122.132812 153.765625 122.984375 C 153.496094 123.835938 153.417969 124.691406 153.511719 125.574219 C 153.605469 126.441406 153.90625 127.3125 154.398438 128.179688 C 154.921875 129.078125 155.523438 129.789062 156.1875 130.328125 C 156.871094 130.847656 157.628906 131.210938 158.46875 131.417969 C 159.308594 131.621094 160.257812 131.667969 161.304688 131.558594 C 162.351562 131.464844 163.523438 131.242188 164.820312 130.910156 L 167.65625 135.808594 C 166.625 136.152344 165.597656 136.34375 164.550781 136.375 C 163.523438 136.40625 162.398438 136.359375 161.179688 136.203125 L 160.796875 141.097656 C 162.269531 141.285156 163.792969 141.269531 165.3125 141.050781 C 166.847656 140.828125 168.335938 140.433594 169.761719 139.816406 L 171.566406 142.929688 L 174.785156 141.082031 L 173.023438 138.03125 C 173.960938 137.371094 174.71875 136.628906 175.335938 135.839844 C 175.957031 135.046875 176.382812 134.226562 176.652344 133.375 C 176.921875 132.523438 177 131.667969 176.921875 130.785156 C 176.84375 129.902344 176.542969 129.03125 176.050781 128.179688 Z M 176.050781 128.164062 " fill-opacity="1" fill-rule="evenodd"/><g fill="#000000" fill-opacity="1"><g transform="translate(103.384435, 275.07004)"><g><path d="M 10.78125 -14.40625 L 10.78125 0 L 2.609375 0 L 2.609375 -35.890625 L 10.78125 -35.890625 L 10.78125 -21.578125 L 22.359375 -21.578125 L 22.359375 -35.890625 L 30.53125 -35.890625 L 30.53125 0 L 22.359375 0 L 22.359375 -14.40625 Z M 10.78125 -14.40625 "/></g></g></g><g fill="#000000" fill-opacity="1"><g transform="translate(135.661415, 275.07004)"><g><path d="M 30.1875 -35.890625 L 30.1875 -12.75 C 30.1875 -8.34375 29 -5.003906 26.625 -2.734375 C 24.25 -0.472656 20.769531 0.65625 16.1875 0.65625 C 11.601562 0.65625 8.117188 -0.472656 5.734375 -2.734375 C 3.359375 -5.003906 2.171875 -8.34375 2.171875 -12.75 L 2.171875 -35.890625 L 10.359375 -35.890625 L 10.359375 -15.140625 C 10.359375 -12.234375 10.8125 -10.210938 11.71875 -9.078125 C 12.632812 -7.953125 14.117188 -7.390625 16.171875 -7.390625 C 18.234375 -7.390625 19.722656 -7.953125 20.640625 -9.078125 C 21.554688 -10.210938 22.015625 -12.234375 22.015625 -15.140625 L 22.015625 -35.890625 Z M 30.1875 -35.890625 "/></g></g></g><g fill="#000000" fill-opacity="1"><g transform="translate(167.155402, 275.07004)"><g><path d="M 10.78125 -22.265625 L 10.78125 0 L 2.609375 0 L 2.609375 -35.890625 L 10.78125 -35.890625 L 25.0625 -13.609375 L 25.140625 -13.609375 L 25.140625 -35.890625 L 33.328125 -35.890625 L 33.328125 0 L 25.140625 0 L 10.875 -22.265625 Z M 10.78125 -22.265625 "/></g></g></g><g fill="#000000" fill-opacity="1"><g transform="translate(202.216383, 275.07004)"><g><path d="M 2.609375 -35.890625 L 13 -35.890625 C 17.988281 -35.890625 22.253906 -34.1875 25.796875 -30.78125 C 29.335938 -27.375 31.109375 -23.101562 31.109375 -17.96875 C 31.109375 -12.800781 29.34375 -8.515625 25.8125 -5.109375 C 22.289062 -1.703125 18.019531 0 13 0 L 2.609375 0 Z M 10.78125 -7.3125 L 12.046875 -7.3125 C 15.035156 -7.3125 17.476562 -8.316406 19.375 -10.328125 C 21.28125 -12.347656 22.242188 -14.878906 22.265625 -17.921875 C 22.265625 -20.960938 21.316406 -23.5 19.421875 -25.53125 C 17.523438 -27.5625 15.066406 -28.578125 12.046875 -28.578125 L 10.78125 -28.578125 Z M 10.78125 -7.3125 "/></g></g></g><g fill="#000000" fill-opacity="1"><g transform="translate(233.449368, 275.07004)"><g><path d="M 1 -17.96875 C 1 -23.15625 2.765625 -27.546875 6.296875 -31.140625 C 9.835938 -34.742188 14.101562 -36.546875 19.09375 -36.546875 C 24.113281 -36.546875 28.378906 -34.753906 31.890625 -31.171875 C 35.398438 -27.585938 37.15625 -23.1875 37.15625 -17.96875 C 37.15625 -12.71875 35.425781 -8.300781 31.96875 -4.71875 C 28.519531 -1.132812 24.226562 0.65625 19.09375 0.65625 C 13.84375 0.65625 9.515625 -1.117188 6.109375 -4.671875 C 2.703125 -8.222656 1 -12.65625 1 -17.96875 Z M 9.828125 -17.96875 C 9.828125 -16.082031 10.117188 -14.363281 10.703125 -12.8125 C 11.285156 -11.257812 12.300781 -9.945312 13.75 -8.875 C 15.195312 -7.800781 16.976562 -7.265625 19.09375 -7.265625 C 22.132812 -7.265625 24.429688 -8.304688 25.984375 -10.390625 C 27.535156 -12.484375 28.3125 -15.007812 28.3125 -17.96875 C 28.3125 -20.894531 27.519531 -23.410156 25.9375 -25.515625 C 24.363281 -27.617188 22.082031 -28.671875 19.09375 -28.671875 C 16.132812 -28.671875 13.847656 -27.617188 12.234375 -25.515625 C 10.628906 -23.410156 9.828125 -20.894531 9.828125 -17.96875 Z M 9.828125 -17.96875 "/></g></g></g><g fill="#399b53" fill-opacity="1"><g transform="translate(93.395224, 320.229296)"><g/></g></g><g fill="#399b53" fill-opacity="1"><g transform="translate(105.278035, 320.229296)"><g><path d="M 10.546875 -11.5625 L 4.828125 -2.3125 L 10.171875 -2.3125 L 10.171875 0 L 0.21875 0 L 5.9375 -9.25 L 1.03125 -9.25 L 1.03125 -11.5625 Z M 10.546875 -11.5625 "/></g></g></g><g fill="#399b53" fill-opacity="1"><g transform="translate(124.118222, 320.229296)"><g><path d="M 7.453125 -11.5625 L 7.453125 -9.25 L 3.46875 -9.25 L 3.46875 -6.953125 L 7.28125 -6.953125 L 7.28125 -4.640625 L 3.46875 -4.640625 L 3.46875 -2.3125 L 7.453125 -2.3125 L 7.453125 0 L 0.84375 0 L 0.84375 -11.5625 Z M 7.453125 -11.5625 "/></g></g></g><g fill="#399b53" fill-opacity="1"><g transform="translate(140.309457, 320.229296)"><g><path d="M 0.84375 -11.5625 L 4.96875 -11.5625 C 6.082031 -11.5625 6.988281 -11.265625 7.6875 -10.671875 C 8.394531 -10.078125 8.75 -9.226562 8.75 -8.125 C 8.75 -7.28125 8.535156 -6.566406 8.109375 -5.984375 C 7.679688 -5.410156 7.101562 -5.007812 6.375 -4.78125 L 10.359375 0 L 7.015625 0 L 3.46875 -4.5625 L 3.46875 0 L 0.84375 0 Z M 3.46875 -6.4375 L 3.78125 -6.4375 C 4.03125 -6.4375 4.238281 -6.441406 4.40625 -6.453125 C 4.570312 -6.460938 4.757812 -6.492188 4.96875 -6.546875 C 5.1875 -6.597656 5.359375 -6.675781 5.484375 -6.78125 C 5.617188 -6.882812 5.734375 -7.035156 5.828125 -7.234375 C 5.921875 -7.429688 5.96875 -7.671875 5.96875 -7.953125 C 5.96875 -8.234375 5.921875 -8.46875 5.828125 -8.65625 C 5.734375 -8.851562 5.617188 -9.003906 5.484375 -9.109375 C 5.359375 -9.210938 5.1875 -9.289062 4.96875 -9.34375 C 4.757812 -9.40625 4.570312 -9.4375 4.40625 -9.4375 C 4.238281 -9.445312 4.03125 -9.453125 3.78125 -9.453125 L 3.46875 -9.453125 Z M 3.46875 -6.4375 "/></g></g></g><g fill="#399b53" fill-opacity="1"><g transform="translate(158.406805, 320.229296)"><g><path d="M 0.328125 -5.78125 C 0.328125 -7.457031 0.894531 -8.875 2.03125 -10.03125 C 3.164062 -11.1875 4.539062 -11.765625 6.15625 -11.765625 C 7.769531 -11.765625 9.140625 -11.1875 10.265625 -10.03125 C 11.398438 -8.882812 11.96875 -7.46875 11.96875 -5.78125 C 11.96875 -4.09375 11.410156 -2.671875 10.296875 -1.515625 C 9.191406 -0.367188 7.8125 0.203125 6.15625 0.203125 C 4.457031 0.203125 3.0625 -0.363281 1.96875 -1.5 C 0.875 -2.644531 0.328125 -4.070312 0.328125 -5.78125 Z M 3.171875 -5.78125 C 3.171875 -5.175781 3.265625 -4.625 3.453125 -4.125 C 3.640625 -3.625 3.960938 -3.203125 4.421875 -2.859375 C 4.890625 -2.515625 5.46875 -2.34375 6.15625 -2.34375 C 7.132812 -2.34375 7.875 -2.675781 8.375 -3.34375 C 8.875 -4.019531 9.125 -4.832031 9.125 -5.78125 C 9.125 -6.726562 8.867188 -7.539062 8.359375 -8.21875 C 7.847656 -8.894531 7.113281 -9.234375 6.15625 -9.234375 C 5.195312 -9.234375 4.457031 -8.894531 3.9375 -8.21875 C 3.425781 -7.539062 3.171875 -6.726562 3.171875 -5.78125 Z M 3.171875 -5.78125 "/></g></g></g><g fill="#399b53" fill-opacity="1"><g transform="translate(178.760682, 320.229296)"><g/></g></g><g fill="#399b53" fill-opacity="1"><g transform="translate(190.649118, 320.229296)"><g><path d="M 0.109375 -9.25 L 0.109375 -11.5625 L 8.234375 -11.5625 L 8.234375 -9.25 L 5.5 -9.25 L 5.5 0 L 2.859375 0 L 2.859375 -9.25 Z M 0.109375 -9.25 "/></g></g></g><g fill="#399b53" fill-opacity="1"><g transform="translate(207.064596, 320.229296)"><g><path d="M 0.328125 -5.78125 C 0.328125 -7.457031 0.894531 -8.875 2.03125 -10.03125 C 3.164062 -11.1875 4.539062 -11.765625 6.15625 -11.765625 C 7.769531 -11.765625 9.140625 -11.1875 10.265625 -10.03125 C 11.398438 -8.882812 11.96875 -7.46875 11.96875 -5.78125 C 11.96875 -4.09375 11.410156 -2.671875 10.296875 -1.515625 C 9.191406 -0.367188 7.8125 0.203125 6.15625 0.203125 C 4.457031 0.203125 3.0625 -0.363281 1.96875 -1.5 C 0.875 -2.644531 0.328125 -4.070312 0.328125 -5.78125 Z M 3.171875 -5.78125 C 3.171875 -5.175781 3.265625 -4.625 3.453125 -4.125 C 3.640625 -3.625 3.960938 -3.203125 4.421875 -2.859375 C 4.890625 -2.515625 5.46875 -2.34375 6.15625 -2.34375 C 7.132812 -2.34375 7.875 -2.675781 8.375 -3.34375 C 8.875 -4.019531 9.125 -4.832031 9.125 -5.78125 C 9.125 -6.726562 8.867188 -7.539062 8.359375 -8.21875 C 7.847656 -8.894531 7.113281 -9.234375 6.15625 -9.234375 C 5.195312 -9.234375 4.457031 -8.894531 3.9375 -8.21875 C 3.425781 -7.539062 3.171875 -6.726562 3.171875 -5.78125 Z M 3.171875 -5.78125 "/></g></g></g><g fill="#399b53" fill-opacity="1"><g transform="translate(227.418473, 320.229296)"><g/></g></g><g fill="#399b53" fill-opacity="1"><g transform="translate(239.306915, 320.229296)"><g><path d="M 0.40625 -6.828125 L 0.40625 -9.4375 L 3.703125 -11.5625 L 4.953125 -11.5625 L 4.953125 0 L 2.3125 0 L 2.3125 -8.0625 Z M 0.40625 -6.828125 "/></g></g></g><g fill="#399b53" fill-opacity="1"><g transform="translate(253.157539, 320.229296)"><g><path d="M 0.390625 -5.78125 C 0.390625 -7.6875 0.84375 -9.160156 1.75 -10.203125 C 2.65625 -11.242188 3.769531 -11.765625 5.09375 -11.765625 C 6.425781 -11.765625 7.539062 -11.242188 8.4375 -10.203125 C 9.34375 -9.160156 9.796875 -7.6875 9.796875 -5.78125 C 9.796875 -4.738281 9.671875 -3.820312 9.421875 -3.03125 C 9.171875 -2.25 8.820312 -1.625 8.375 -1.15625 C 7.925781 -0.695312 7.425781 -0.351562 6.875 -0.125 C 6.332031 0.09375 5.738281 0.203125 5.09375 0.203125 C 4.457031 0.203125 3.863281 0.09375 3.3125 -0.125 C 2.769531 -0.351562 2.273438 -0.695312 1.828125 -1.15625 C 1.378906 -1.625 1.023438 -2.25 0.765625 -3.03125 C 0.515625 -3.820312 0.390625 -4.738281 0.390625 -5.78125 Z M 3.0625 -5.78125 C 3.0625 -4.550781 3.238281 -3.628906 3.59375 -3.015625 C 3.945312 -2.410156 4.453125 -2.109375 5.109375 -2.109375 C 5.742188 -2.109375 6.238281 -2.410156 6.59375 -3.015625 C 6.957031 -3.628906 7.140625 -4.550781 7.140625 -5.78125 C 7.140625 -6.945312 6.957031 -7.847656 6.59375 -8.484375 C 6.238281 -9.128906 5.742188 -9.453125 5.109375 -9.453125 C 4.472656 -9.453125 3.972656 -9.128906 3.609375 -8.484375 C 3.242188 -7.835938 3.0625 -6.9375 3.0625 -5.78125 Z M 3.0625 -5.78125 "/></g></g></g><g fill="#399b53" fill-opacity="1"><g transform="translate(271.409067, 320.229296)"><g><path d="M 0.390625 -5.78125 C 0.390625 -7.6875 0.84375 -9.160156 1.75 -10.203125 C 2.65625 -11.242188 3.769531 -11.765625 5.09375 -11.765625 C 6.425781 -11.765625 7.539062 -11.242188 8.4375 -10.203125 C 9.34375 -9.160156 9.796875 -7.6875 9.796875 -5.78125 C 9.796875 -4.738281 9.671875 -3.820312 9.421875 -3.03125 C 9.171875 -2.25 8.820312 -1.625 8.375 -1.15625 C 7.925781 -0.695312 7.425781 -0.351562 6.875 -0.125 C 6.332031 0.09375 5.738281 0.203125 5.09375 0.203125 C 4.457031 0.203125 3.863281 0.09375 3.3125 -0.125 C 2.769531 -0.351562 2.273438 -0.695312 1.828125 -1.15625 C 1.378906 -1.625 1.023438 -2.25 0.765625 -3.03125 C 0.515625 -3.820312 0.390625 -4.738281 0.390625 -5.78125 Z M 3.0625 -5.78125 C 3.0625 -4.550781 3.238281 -3.628906 3.59375 -3.015625 C 3.945312 -2.410156 4.453125 -2.109375 5.109375 -2.109375 C 5.742188 -2.109375 6.238281 -2.410156 6.59375 -3.015625 C 6.957031 -3.628906 7.140625 -4.550781 7.140625 -5.78125 C 7.140625 -6.945312 6.957031 -7.847656 6.59375 -8.484375 C 6.238281 -9.128906 5.742188 -9.453125 5.109375 -9.453125 C 4.472656 -9.453125 3.972656 -9.128906 3.609375 -8.484375 C 3.242188 -7.835938 3.0625 -6.9375 3.0625 -5.78125 Z M 3.0625 -5.78125 "/></g></g></g></svg>