<svg xmlns="http://www.w3.org/2000/svg" xmlns:xlink="http://www.w3.org/1999/xlink" width="800" zoomAndPan="magnify" viewBox="0 0 600 149.999998" height="200" preserveAspectRatio="xMidYMid meet" version="1.0"><defs><clipPath id="47f515f14e"><path d="M 293 29 L 305 29 L 305 45 L 293 45 Z M 293 29 " clip-rule="nonzero"/></clipPath><clipPath id="f400aa98d0"><path d="M 285.800781 12.429688 L 348.746094 70.292969 L 286.820312 137.652344 L 223.875 79.789062 Z M 285.800781 12.429688 " clip-rule="nonzero"/></clipPath><clipPath id="7744d174c4"><path d="M 285.800781 12.429688 L 348.746094 70.292969 L 286.820312 137.652344 L 223.875 79.789062 Z M 285.800781 12.429688 " clip-rule="nonzero"/></clipPath><clipPath id="44a765b8ab"><path d="M 285.800781 12.429688 L 348.746094 70.292969 L 286.820312 137.652344 L 223.875 79.789062 Z M 285.800781 12.429688 " clip-rule="nonzero"/></clipPath><clipPath id="083fac9fef"><path d="M 292 27 L 306 27 L 306 47 L 292 47 Z M 292 27 " clip-rule="nonzero"/></clipPath><clipPath id="b3a8576b5e"><path d="M 285.800781 12.429688 L 348.746094 70.292969 L 286.820312 137.652344 L 223.875 79.789062 Z M 285.800781 12.429688 " clip-rule="nonzero"/></clipPath><clipPath id="c36474f44f"><path d="M 285.800781 12.429688 L 348.746094 70.292969 L 286.820312 137.652344 L 223.875 79.789062 Z M 285.800781 12.429688 " clip-rule="nonzero"/></clipPath><clipPath id="da488055f9"><path d="M 285.800781 12.429688 L 348.746094 70.292969 L 286.820312 137.652344 L 223.875 79.789062 Z M 285.800781 12.429688 " clip-rule="nonzero"/></clipPath><clipPath id="b0d21647e5"><path d="M 284 28 L 301 28 L 301 33 L 284 33 Z M 284 28 " clip-rule="nonzero"/></clipPath><clipPath id="b5087a3cf1"><path d="M 285.800781 12.429688 L 348.746094 70.292969 L 286.820312 137.652344 L 223.875 79.789062 Z M 285.800781 12.429688 " clip-rule="nonzero"/></clipPath><clipPath id="16dd6f298a"><path d="M 285.800781 12.429688 L 348.746094 70.292969 L 286.820312 137.652344 L 223.875 79.789062 Z M 285.800781 12.429688 " clip-rule="nonzero"/></clipPath><clipPath id="919f35f142"><path d="M 285.800781 12.429688 L 348.746094 70.292969 L 286.820312 137.652344 L 223.875 79.789062 Z M 285.800781 12.429688 " clip-rule="nonzero"/></clipPath><clipPath id="351e6545e9"><path d="M 282 27 L 303 27 L 303 34 L 282 34 Z M 282 27 " clip-rule="nonzero"/></clipPath><clipPath id="99028987ab"><path d="M 285.800781 12.429688 L 348.746094 70.292969 L 286.820312 137.652344 L 223.875 79.789062 Z M 285.800781 12.429688 " clip-rule="nonzero"/></clipPath><clipPath id="213612864e"><path d="M 285.800781 12.429688 L 348.746094 70.292969 L 286.820312 137.652344 L 223.875 79.789062 Z M 285.800781 12.429688 " clip-rule="nonzero"/></clipPath><clipPath id="a73cbfbee5"><path d="M 285.800781 12.429688 L 348.746094 70.292969 L 286.820312 137.652344 L 223.875 79.789062 Z M 285.800781 12.429688 " clip-rule="nonzero"/></clipPath><clipPath id="23cdbc9707"><path d="M 261 39 L 279 39 L 279 49 L 261 49 Z M 261 39 " clip-rule="nonzero"/></clipPath><clipPath id="7c93abeca5"><path d="M 285.800781 12.429688 L 348.746094 70.292969 L 286.820312 137.652344 L 223.875 79.789062 Z M 285.800781 12.429688 " clip-rule="nonzero"/></clipPath><clipPath id="fd1011a556"><path d="M 285.800781 12.429688 L 348.746094 70.292969 L 286.820312 137.652344 L 223.875 79.789062 Z M 285.800781 12.429688 " clip-rule="nonzero"/></clipPath><clipPath id="5be4a31bb3"><path d="M 285.800781 12.429688 L 348.746094 70.292969 L 286.820312 137.652344 L 223.875 79.789062 Z M 285.800781 12.429688 " clip-rule="nonzero"/></clipPath><clipPath id="555de25ecc"><path d="M 260 38 L 281 38 L 281 51 L 260 51 Z M 260 38 " clip-rule="nonzero"/></clipPath><clipPath id="24335b8e6a"><path d="M 285.800781 12.429688 L 348.746094 70.292969 L 286.820312 137.652344 L 223.875 79.789062 Z M 285.800781 12.429688 " clip-rule="nonzero"/></clipPath><clipPath id="7b41b19783"><path d="M 285.800781 12.429688 L 348.746094 70.292969 L 286.820312 137.652344 L 223.875 79.789062 Z M 285.800781 12.429688 " clip-rule="nonzero"/></clipPath><clipPath id="4e50bbb489"><path d="M 285.800781 12.429688 L 348.746094 70.292969 L 286.820312 137.652344 L 223.875 79.789062 Z M 285.800781 12.429688 " clip-rule="nonzero"/></clipPath><clipPath id="a9e2d9eed6"><path d="M 295 98 L 305 98 L 305 120 L 295 120 Z M 295 98 " clip-rule="nonzero"/></clipPath><clipPath id="7477f568f7"><path d="M 285.800781 12.429688 L 348.746094 70.292969 L 286.820312 137.652344 L 223.875 79.789062 Z M 285.800781 12.429688 " clip-rule="nonzero"/></clipPath><clipPath id="89a8012765"><path d="M 285.800781 12.429688 L 348.746094 70.292969 L 286.820312 137.652344 L 223.875 79.789062 Z M 285.800781 12.429688 " clip-rule="nonzero"/></clipPath><clipPath id="e40766185e"><path d="M 285.800781 12.429688 L 348.746094 70.292969 L 286.820312 137.652344 L 223.875 79.789062 Z M 285.800781 12.429688 " clip-rule="nonzero"/></clipPath><clipPath id="20bea1cd0f"><path d="M 294 96 L 307 96 L 307 121 L 294 121 Z M 294 96 " clip-rule="nonzero"/></clipPath><clipPath id="54263e0044"><path d="M 285.800781 12.429688 L 348.746094 70.292969 L 286.820312 137.652344 L 223.875 79.789062 Z M 285.800781 12.429688 " clip-rule="nonzero"/></clipPath><clipPath id="7b0c4e8274"><path d="M 285.800781 12.429688 L 348.746094 70.292969 L 286.820312 137.652344 L 223.875 79.789062 Z M 285.800781 12.429688 " clip-rule="nonzero"/></clipPath><clipPath id="33eddc0435"><path d="M 285.800781 12.429688 L 348.746094 70.292969 L 286.820312 137.652344 L 223.875 79.789062 Z M 285.800781 12.429688 " clip-rule="nonzero"/></clipPath><clipPath id="84ba163110"><path d="M 265 51 L 304 51 L 304 102 L 265 102 Z M 265 51 " clip-rule="nonzero"/></clipPath><clipPath id="012979a007"><path d="M 285.800781 12.429688 L 348.746094 70.292969 L 286.820312 137.652344 L 223.875 79.789062 Z M 285.800781 12.429688 " clip-rule="nonzero"/></clipPath><clipPath id="0152803ba6"><path d="M 285.800781 12.429688 L 348.746094 70.292969 L 286.820312 137.652344 L 223.875 79.789062 Z M 285.800781 12.429688 " clip-rule="nonzero"/></clipPath><clipPath id="c427f6f0af"><path d="M 285.800781 12.429688 L 348.746094 70.292969 L 286.820312 137.652344 L 223.875 79.789062 Z M 285.800781 12.429688 " clip-rule="nonzero"/></clipPath><clipPath id="57593df8d9"><path d="M 263 49 L 305 49 L 305 103 L 263 103 Z M 263 49 " clip-rule="nonzero"/></clipPath><clipPath id="bcefba5d7f"><path d="M 285.800781 12.429688 L 348.746094 70.292969 L 286.820312 137.652344 L 223.875 79.789062 Z M 285.800781 12.429688 " clip-rule="nonzero"/></clipPath><clipPath id="d19628c7a2"><path d="M 285.800781 12.429688 L 348.746094 70.292969 L 286.820312 137.652344 L 223.875 79.789062 Z M 285.800781 12.429688 " clip-rule="nonzero"/></clipPath><clipPath id="43fa7c83e0"><path d="M 285.800781 12.429688 L 348.746094 70.292969 L 286.820312 137.652344 L 223.875 79.789062 Z M 285.800781 12.429688 " clip-rule="nonzero"/></clipPath><clipPath id="44ff559aaf"><path d="M 263 104 L 278 104 L 278 114 L 263 114 Z M 263 104 " clip-rule="nonzero"/></clipPath><clipPath id="855b282429"><path d="M 285.800781 12.429688 L 348.746094 70.292969 L 286.820312 137.652344 L 223.875 79.789062 Z M 285.800781 12.429688 " clip-rule="nonzero"/></clipPath><clipPath id="85f66fd830"><path d="M 285.800781 12.429688 L 348.746094 70.292969 L 286.820312 137.652344 L 223.875 79.789062 Z M 285.800781 12.429688 " clip-rule="nonzero"/></clipPath><clipPath id="758aaabd3f"><path d="M 285.800781 12.429688 L 348.746094 70.292969 L 286.820312 137.652344 L 223.875 79.789062 Z M 285.800781 12.429688 " clip-rule="nonzero"/></clipPath><clipPath id="820c9c45a0"><path d="M 262 103 L 280 103 L 280 115 L 262 115 Z M 262 103 " clip-rule="nonzero"/></clipPath><clipPath id="55e4c30d9e"><path d="M 285.800781 12.429688 L 348.746094 70.292969 L 286.820312 137.652344 L 223.875 79.789062 Z M 285.800781 12.429688 " clip-rule="nonzero"/></clipPath><clipPath id="45469cee35"><path d="M 285.800781 12.429688 L 348.746094 70.292969 L 286.820312 137.652344 L 223.875 79.789062 Z M 285.800781 12.429688 " clip-rule="nonzero"/></clipPath><clipPath id="c31b03f268"><path d="M 285.800781 12.429688 L 348.746094 70.292969 L 286.820312 137.652344 L 223.875 79.789062 Z M 285.800781 12.429688 " clip-rule="nonzero"/></clipPath><clipPath id="957466b383"><path d="M 244 67 L 260 67 L 260 72 L 244 72 Z M 244 67 " clip-rule="nonzero"/></clipPath><clipPath id="2bec447b3c"><path d="M 285.800781 12.429688 L 348.746094 70.292969 L 286.820312 137.652344 L 223.875 79.789062 Z M 285.800781 12.429688 " clip-rule="nonzero"/></clipPath><clipPath id="3f548dae09"><path d="M 285.800781 12.429688 L 348.746094 70.292969 L 286.820312 137.652344 L 223.875 79.789062 Z M 285.800781 12.429688 " clip-rule="nonzero"/></clipPath><clipPath id="3090434390"><path d="M 285.800781 12.429688 L 348.746094 70.292969 L 286.820312 137.652344 L 223.875 79.789062 Z M 285.800781 12.429688 " clip-rule="nonzero"/></clipPath><clipPath id="c439fb2070"><path d="M 243 66 L 262 66 L 262 74 L 243 74 Z M 243 66 " clip-rule="nonzero"/></clipPath><clipPath id="1f02828c91"><path d="M 285.800781 12.429688 L 348.746094 70.292969 L 286.820312 137.652344 L 223.875 79.789062 Z M 285.800781 12.429688 " clip-rule="nonzero"/></clipPath><clipPath id="9e0c129be7"><path d="M 285.800781 12.429688 L 348.746094 70.292969 L 286.820312 137.652344 L 223.875 79.789062 Z M 285.800781 12.429688 " clip-rule="nonzero"/></clipPath><clipPath id="ca481c91f3"><path d="M 285.800781 12.429688 L 348.746094 70.292969 L 286.820312 137.652344 L 223.875 79.789062 Z M 285.800781 12.429688 " clip-rule="nonzero"/></clipPath><clipPath id="5c4382b66b"><path d="M 295 42 L 308 42 L 308 51 L 295 51 Z M 295 42 " clip-rule="nonzero"/></clipPath><clipPath id="2a90e178e6"><path d="M 285.800781 12.429688 L 348.746094 70.292969 L 286.820312 137.652344 L 223.875 79.789062 Z M 285.800781 12.429688 " clip-rule="nonzero"/></clipPath><clipPath id="2d39ef350e"><path d="M 285.800781 12.429688 L 348.746094 70.292969 L 286.820312 137.652344 L 223.875 79.789062 Z M 285.800781 12.429688 " clip-rule="nonzero"/></clipPath><clipPath id="3b02a3244b"><path d="M 285.800781 12.429688 L 348.746094 70.292969 L 286.820312 137.652344 L 223.875 79.789062 Z M 285.800781 12.429688 " clip-rule="nonzero"/></clipPath><clipPath id="af62eac557"><path d="M 294 40 L 310 40 L 310 53 L 294 53 Z M 294 40 " clip-rule="nonzero"/></clipPath><clipPath id="189928ebd5"><path d="M 285.800781 12.429688 L 348.746094 70.292969 L 286.820312 137.652344 L 223.875 79.789062 Z M 285.800781 12.429688 " clip-rule="nonzero"/></clipPath><clipPath id="ad53fd6510"><path d="M 285.800781 12.429688 L 348.746094 70.292969 L 286.820312 137.652344 L 223.875 79.789062 Z M 285.800781 12.429688 " clip-rule="nonzero"/></clipPath><clipPath id="c160f0189e"><path d="M 285.800781 12.429688 L 348.746094 70.292969 L 286.820312 137.652344 L 223.875 79.789062 Z M 285.800781 12.429688 " clip-rule="nonzero"/></clipPath><clipPath id="44f0eea9bf"><path d="M 296 40 L 308 40 L 308 46 L 296 46 Z M 296 40 " clip-rule="nonzero"/></clipPath><clipPath id="147f94f92b"><path d="M 285.800781 12.429688 L 348.746094 70.292969 L 286.820312 137.652344 L 223.875 79.789062 Z M 285.800781 12.429688 " clip-rule="nonzero"/></clipPath><clipPath id="9aa64c7130"><path d="M 285.800781 12.429688 L 348.746094 70.292969 L 286.820312 137.652344 L 223.875 79.789062 Z M 285.800781 12.429688 " clip-rule="nonzero"/></clipPath><clipPath id="7d88872db2"><path d="M 285.800781 12.429688 L 348.746094 70.292969 L 286.820312 137.652344 L 223.875 79.789062 Z M 285.800781 12.429688 " clip-rule="nonzero"/></clipPath><clipPath id="7912c802a4"><path d="M 295 39 L 310 39 L 310 48 L 295 48 Z M 295 39 " clip-rule="nonzero"/></clipPath><clipPath id="6866b71db9"><path d="M 285.800781 12.429688 L 348.746094 70.292969 L 286.820312 137.652344 L 223.875 79.789062 Z M 285.800781 12.429688 " clip-rule="nonzero"/></clipPath><clipPath id="48cbc44f87"><path d="M 285.800781 12.429688 L 348.746094 70.292969 L 286.820312 137.652344 L 223.875 79.789062 Z M 285.800781 12.429688 " clip-rule="nonzero"/></clipPath><clipPath id="1e875d0dd0"><path d="M 285.800781 12.429688 L 348.746094 70.292969 L 286.820312 137.652344 L 223.875 79.789062 Z M 285.800781 12.429688 " clip-rule="nonzero"/></clipPath><clipPath id="e5514e4550"><path d="M 244 31 L 301 31 L 301 122 L 244 122 Z M 244 31 " clip-rule="nonzero"/></clipPath><clipPath id="76fc1e2085"><path d="M 285.800781 12.429688 L 348.746094 70.292969 L 286.820312 137.652344 L 223.875 79.789062 Z M 285.800781 12.429688 " clip-rule="nonzero"/></clipPath><clipPath id="d1465b65e2"><path d="M 285.800781 12.429688 L 348.746094 70.292969 L 286.820312 137.652344 L 223.875 79.789062 Z M 285.800781 12.429688 " clip-rule="nonzero"/></clipPath><clipPath id="8d190a5ae0"><path d="M 285.800781 12.429688 L 348.746094 70.292969 L 286.820312 137.652344 L 223.875 79.789062 Z M 285.800781 12.429688 " clip-rule="nonzero"/></clipPath><clipPath id="6d0101ed39"><path d="M 243 30 L 302 30 L 302 123 L 243 123 Z M 243 30 " clip-rule="nonzero"/></clipPath><clipPath id="7c69a42d54"><path d="M 285.800781 12.429688 L 348.746094 70.292969 L 286.820312 137.652344 L 223.875 79.789062 Z M 285.800781 12.429688 " clip-rule="nonzero"/></clipPath><clipPath id="aec3ffa1b7"><path d="M 285.800781 12.429688 L 348.746094 70.292969 L 286.820312 137.652344 L 223.875 79.789062 Z M 285.800781 12.429688 " clip-rule="nonzero"/></clipPath><clipPath id="5cb1b80d7c"><path d="M 285.800781 12.429688 L 348.746094 70.292969 L 286.820312 137.652344 L 223.875 79.789062 Z M 285.800781 12.429688 " clip-rule="nonzero"/></clipPath></defs><g clip-path="url(#47f515f14e)"><g clip-path="url(#f400aa98d0)"><g clip-path="url(#7744d174c4)"><g clip-path="url(#44a765b8ab)"><path fill="#e6e7e8" d="M 300.738281 29.289062 L 304.378906 40.871094 L 296.574219 44.570312 L 293.484375 32.527344 " fill-opacity="1" fill-rule="evenodd"/></g></g></g></g><g clip-path="url(#083fac9fef)"><g clip-path="url(#b3a8576b5e)"><g clip-path="url(#c36474f44f)"><g clip-path="url(#da488055f9)"><path stroke-linecap="round" transform="matrix(1.451034, 1.333883, -1.331165, 1.448078, 263.184657, -37.108897)" fill="none" stroke-linejoin="round" d="M 36.825771 11.930774 L 42.162479 15.013126 L 40.517443 19.083007 L 35.228194 15.638628 " stroke="#333333" stroke-width="1.468" stroke-opacity="1" stroke-miterlimit="4"/></g></g></g></g><g clip-path="url(#b0d21647e5)"><g clip-path="url(#b5087a3cf1)"><g clip-path="url(#16dd6f298a)"><g clip-path="url(#919f35f142)"><path fill="#e6e7e8" d="M 293.210938 32.253906 L 300.683594 29.285156 L 290.804688 28.996094 L 284.371094 31.507812 " fill-opacity="1" fill-rule="evenodd"/></g></g></g></g><g clip-path="url(#351e6545e9)"><g clip-path="url(#99028987ab)"><g clip-path="url(#213612864e)"><g clip-path="url(#a73cbfbee5)"><path stroke-linecap="round" transform="matrix(1.451034, 1.333883, -1.331165, 1.448078, 263.184657, -37.108897)" fill="none" stroke-linejoin="round" d="M 35.032171 15.630365 L 36.804003 11.948128 L 33.014768 15.238926 L 31.47412 18.392599 " stroke="#333333" stroke-width="1.468" stroke-opacity="1" stroke-miterlimit="4"/></g></g></g></g><g clip-path="url(#23cdbc9707)"><g clip-path="url(#7c93abeca5)"><g clip-path="url(#fd1011a556)"><g clip-path="url(#5be4a31bb3)"><path fill="#e6e7e8" d="M 261.6875 41.5625 L 267.996094 39.476562 L 278.621094 46.105469 L 272.195312 48.953125 " fill-opacity="1" fill-rule="evenodd"/></g></g></g></g><g clip-path="url(#555de25ecc)"><g clip-path="url(#24335b8e6a)"><g clip-path="url(#7b41b19783)"><g clip-path="url(#4e50bbb489)"><path stroke-linecap="round" transform="matrix(1.451034, 1.333883, -1.331165, 1.448078, 263.184657, -37.108897)" fill="none" stroke-linejoin="round" d="M 26.453739 29.960545 L 28.093896 27.009244 L 34.338689 25.83464 L 32.916307 29.111361 " stroke="#333333" stroke-width="1.468" stroke-opacity="1" stroke-miterlimit="4"/></g></g></g></g><g clip-path="url(#a9e2d9eed6)"><g clip-path="url(#7477f568f7)"><g clip-path="url(#89a8012765)"><g clip-path="url(#e40766185e)"><path fill="#e6e7e8" d="M 297.191406 119.511719 L 304.804688 115.738281 L 303.578125 98.285156 L 295.945312 101.183594 Z M 297.191406 119.511719 " fill-opacity="1" fill-rule="evenodd"/></g></g></g></g><g clip-path="url(#20bea1cd0f)"><g clip-path="url(#54263e0044)"><g clip-path="url(#7b0c4e8274)"><g clip-path="url(#33eddc0435)"><path stroke-linecap="round" transform="matrix(1.451034, 1.333883, -1.331165, 1.448078, 263.184657, -37.108897)" fill="none" stroke-linejoin="round" d="M 66.480188 46.920004 L 68.028246 42.888201 L 61.577317 36.777798 L 59.72152 40.488823 Z M 66.480188 46.920004 " stroke="#333333" stroke-width="1.468" stroke-opacity="1" stroke-miterlimit="4"/></g></g></g></g><g clip-path="url(#84ba163110)"><g clip-path="url(#012979a007)"><g clip-path="url(#0152803ba6)"><g clip-path="url(#c427f6f0af)"><path fill="#e6e7e8" d="M 283.914062 51.242188 C 278.707031 50.421875 252.414062 97.277344 303.46875 98.285156 L 295.820312 101.203125 C 253.488281 101.390625 260.640625 56.503906 283.914062 51.242188 Z M 283.914062 51.242188 " fill-opacity="1" fill-rule="evenodd"/></g></g></g></g><g clip-path="url(#57593df8d9)"><g clip-path="url(#bcefba5d7f)"><g clip-path="url(#d19628c7a2)"><g clip-path="url(#43fa7c83e0)"><path stroke-linecap="round" transform="matrix(1.451034, 1.333883, -1.331165, 1.448078, 263.184657, -37.108897)" fill="none" stroke-linejoin="round" d="M 38.079491 25.936103 C 35.852888 27.420633 42.120409 54.004375 61.536463 36.81543 L 59.681536 40.539141 C 43.934007 55.174307 31.193056 35.913064 38.079491 25.936103 Z M 38.079491 25.936103 " stroke="#333333" stroke-width="1.468" stroke-opacity="1" stroke-miterlimit="4"/></g></g></g></g><g clip-path="url(#44ff559aaf)"><g clip-path="url(#855b282429)"><g clip-path="url(#85f66fd830)"><g clip-path="url(#758aaabd3f)"><path fill="#191919" d="M 274.953125 104.46875 L 263.527344 113.050781 L 271.746094 110.113281 L 277.75 105.386719 Z M 274.953125 104.46875 " fill-opacity="1" fill-rule="evenodd"/></g></g></g></g><g clip-path="url(#820c9c45a0)"><g clip-path="url(#55e4c30d9e)"><g clip-path="url(#45469cee35)"><g clip-path="url(#c31b03f268)"><path stroke-linecap="round" transform="matrix(1.451034, 1.333883, -1.331165, 1.448078, 263.184657, -37.108897)" fill="none" stroke-linejoin="round" d="M 53.008499 48.941089 L 51.687492 56.08442 L 53.748736 52.157174 L 54.368389 48.322362 Z M 53.008499 48.941089 " stroke="#333333" stroke-width="1.468" stroke-opacity="1" stroke-miterlimit="4"/></g></g></g></g><g clip-path="url(#957466b383)"><g clip-path="url(#2bec447b3c)"><g clip-path="url(#3f548dae09)"><g clip-path="url(#3090434390)"><path fill="#191919" d="M 244.832031 71.757812 L 252.191406 68.59375 L 259.578125 67.558594 L 258.902344 70.207031 Z M 244.832031 71.757812 " fill-opacity="1" fill-rule="evenodd"/></g></g></g></g><g clip-path="url(#c439fb2070)"><g clip-path="url(#1f02828c91)"><g clip-path="url(#9e0c129be7)"><g clip-path="url(#ca481c91f3)"><path stroke-linecap="round" transform="matrix(1.451034, 1.333883, -1.331165, 1.448078, 263.184657, -37.108897)" fill="none" stroke-linejoin="round" d="M 30.52586 47.061544 L 32.188316 43.34518 L 34.591976 40.416223 L 35.248937 41.640003 Z M 30.52586 47.061544 " stroke="#333333" stroke-width="1.468" stroke-opacity="1" stroke-miterlimit="4"/></g></g></g></g><g clip-path="url(#5c4382b66b)"><g clip-path="url(#2a90e178e6)"><g clip-path="url(#2d39ef350e)"><g clip-path="url(#3b02a3244b)"><path fill="#e6e7e8" d="M 307.609375 42.199219 L 302.925781 47.335938 L 295.800781 50.765625 L 300.320312 45.773438 " fill-opacity="1" fill-rule="evenodd"/></g></g></g></g><g clip-path="url(#af62eac557)"><g clip-path="url(#189928ebd5)"><g clip-path="url(#ad53fd6510)"><g clip-path="url(#c160f0189e)"><path stroke-linecap="round" transform="matrix(1.451034, 1.333883, -1.331165, 1.448078, 263.184657, -37.108897)" fill="none" stroke-linejoin="round" d="M 43.825158 14.39873 L 43.839503 17.932782 L 42.355798 21.667925 L 42.329799 18.244416 " stroke="#333333" stroke-width="1.468" stroke-opacity="1" stroke-miterlimit="4"/></g></g></g></g><g clip-path="url(#44f0eea9bf)"><g clip-path="url(#147f94f92b)"><g clip-path="url(#9aa64c7130)"><g clip-path="url(#7d88872db2)"><path fill="#191919" d="M 304.203125 40.921875 L 307.652344 42.117188 L 300.3125 45.640625 L 296.816406 44.480469 Z M 304.203125 40.921875 " fill-opacity="1" fill-rule="evenodd"/></g></g></g></g><g clip-path="url(#7912c802a4)"><g clip-path="url(#6866b71db9)"><g clip-path="url(#48cbc44f87)"><g clip-path="url(#1e875d0dd0)"><path stroke-linecap="round" transform="matrix(1.451034, 1.333883, -1.331165, 1.448078, 263.184657, -37.108897)" fill="none" stroke-linejoin="round" d="M 42.114257 15.092613 L 43.813041 14.353242 L 42.281277 18.197394 L 40.577056 18.966052 Z M 42.114257 15.092613 " stroke="#333333" stroke-width="1.468" stroke-opacity="1" stroke-miterlimit="4"/></g></g></g></g><g clip-path="url(#e5514e4550)"><g clip-path="url(#76fc1e2085)"><g clip-path="url(#d1465b65e2)"><g clip-path="url(#8d190a5ae0)"><path fill="#827d7d" d="M 244.835938 71.929688 L 245.046875 82.398438 L 259.027344 84.507812 L 263.085938 93.84375 L 255.929688 106.214844 L 263.320312 112.945312 L 275.058594 104.25 L 284.40625 107.835938 L 287.910156 121.339844 L 297.09375 119.5 L 295.78125 101.277344 C 249.5625 101.175781 260.421875 45.832031 295.597656 50.835938 L 300.488281 45.519531 L 296.785156 44.453125 L 293.507812 32.230469 L 283.976562 31.6875 L 281.191406 44.605469 L 272.117188 48.875 L 261.199219 41.78125 L 254.324219 48.875 L 261.894531 60.507812 L 258.511719 69.660156 Z M 244.835938 71.929688 " fill-opacity="1" fill-rule="evenodd"/></g></g></g></g><g clip-path="url(#6d0101ed39)"><g clip-path="url(#7c69a42d54)"><g clip-path="url(#aec3ffa1b7)"><g clip-path="url(#5cb1b80d7c)"><path stroke-linecap="round" transform="matrix(1.451034, 1.333883, -1.331165, 1.448078, 263.184657, -37.108897)" fill="none" stroke-linejoin="round" d="M 30.586335 47.12453 L 34.259721 50.970236 L 40.206007 46.949545 L 44.927606 49.047413 L 46.502389 56.139931 L 51.573947 56.116177 L 52.972783 48.822926 L 57.695614 46.948879 L 63.641158 50.797599 L 66.439688 46.949218 L 59.692429 40.58036 C 42.393874 56.44462 27.447006 31.994019 42.304069 21.76413 L 42.305356 18.091591 L 40.555995 18.966569 L 35.135012 15.519448 L 31.388452 18.595598 L 34.783708 24.388859 L 32.8603 29.109 L 26.346466 30.21042 L 26.21425 35.230945 L 33.036216 36.980235 L 34.915253 41.569718 Z M 30.586335 47.12453 " stroke="#333333" stroke-width="1.468" stroke-opacity="1" stroke-miterlimit="4"/></g></g></g></g><path stroke-linecap="butt" transform="matrix(1.5, 0, 0, 1.5, 70.355098, 38.883014)" fill="none" stroke-linejoin="miter" d="M 13.515873 9.906116 L 2.687747 9.906116 L 2.687747 13.643096 L 9.742435 13.643096 L 9.742435 24.689972 C 9.742435 29.874868 5.03931 32.22643 -0.892982 32.22643 L -0.892982 35.999868 C 7.127851 35.999868 13.515873 32.455597 13.515873 24.689972 Z M 25.940353 15.538929 L 29.156499 24.762888 L 22.659102 24.762888 Z M 33.750249 35.999868 L 37.778895 35.999868 L 27.289311 9.533721 L 24.52629 9.533721 L 14.036706 35.999868 L 18.10181 35.999868 C 18.922123 33.830597 20.234623 30.69518 21.237227 28.307159 L 30.604415 28.307159 Z M 56.742438 16.479034 C 56.067958 11.702992 51.883062 9.606637 47.85702 9.606637 C 44.830979 9.606637 41.695562 10.799346 39.945562 13.077992 C 38.823166 14.536325 38.377853 16.286325 38.523687 18.046742 L 38.523687 18.010284 C 38.932541 23.458201 43.708583 24.35143 47.784104 24.762888 C 50.388271 25.025909 53.078375 25.364451 53.534104 27.341013 C 53.607021 27.679555 53.643479 27.971222 53.643479 28.234243 C 53.643479 30.924347 50.580979 32.492055 47.784104 32.492055 C 45.359624 32.492055 42.406499 31.223826 42.140874 28.791534 L 42.140874 28.94518 L 42.104416 28.380076 L 38.29452 28.463409 L 38.330978 29.16393 C 38.823166 33.830597 43.708583 36.229035 47.747645 36.229035 C 52.448167 36.229035 57.453375 33.312368 57.453375 28.270701 C 57.453375 27.752472 57.370042 27.114451 57.260667 26.557159 C 56.258063 22.374867 51.810146 21.44518 48.229416 20.98945 C 45.432541 20.734242 42.479416 20.398305 42.297124 17.7082 C 42.213791 16.814971 42.406499 15.950388 42.924729 15.283721 C 43.974208 13.934763 45.914312 13.343617 47.664312 13.307158 C 49.942958 13.2707 52.484625 14.273304 53.005458 16.624867 Z M 82.120043 22.929555 C 82.120043 25.619659 81.044522 27.971222 79.357022 29.692576 C 77.607022 31.442576 75.182543 32.528514 72.604418 32.528514 C 70.026293 32.528514 67.638272 31.442576 65.92473 29.692576 C 64.200771 27.971222 63.125251 25.583201 63.125251 22.929555 C 63.125251 20.28893 64.200771 17.890492 65.92473 16.17695 C 67.638272 14.42695 70.026293 13.343617 72.604418 13.343617 C 75.182543 13.343617 77.607022 14.42695 79.357022 16.17695 C 81.044522 17.890492 82.120043 20.242055 82.120043 22.929555 Z M 59.315354 22.929555 C 59.315354 26.630076 60.846605 29.947784 63.198167 32.38268 C 65.586188 34.843618 68.950772 36.33841 72.604418 36.33841 C 76.294522 36.33841 79.622647 34.843618 82.047127 32.38268 C 84.398689 29.947784 85.929939 26.630076 85.929939 22.929555 C 85.929939 19.23945 84.398689 15.913929 82.047127 13.48945 C 79.622647 11.064971 76.294522 9.533721 72.604418 9.533721 C 68.950772 9.533721 65.586188 11.064971 63.198167 13.48945 C 60.846605 15.913929 59.315354 19.23945 59.315354 22.929555 Z M 92.609627 35.999868 L 92.609627 17.744659 L 105.232024 35.999868 L 108.213795 35.999868 L 108.213795 9.869658 L 104.484628 9.869658 L 104.484628 28.270701 L 91.752856 9.869658 L 88.846606 9.8332 L 88.846606 35.999868 Z M 92.609627 35.999868 " stroke="#827d7d" stroke-width="1.399999" stroke-opacity="1" stroke-miterlimit="4"/><path stroke-linecap="butt" transform="matrix(1.5, 0, 0, 1.5, 277.392058, 38.883014)" fill="none" stroke-linejoin="miter" d="M 0.124044 23.012888 C 0.124044 26.630076 1.618836 29.911326 3.861024 32.299347 C 6.13967 34.697785 9.348003 36.18216 12.892274 36.18216 C 18.980816 36.18216 23.756858 32.153514 25.25165 26.221222 L 21.551129 26.221222 C 20.212587 30.176951 16.848004 32.455597 12.892274 32.455597 C 10.397482 32.455597 8.118837 31.369659 6.478211 29.656118 C 4.82717 27.934763 3.788107 25.619659 3.788107 23.012888 C 3.788107 20.325388 4.82717 18.010284 6.478211 16.286325 C 8.118837 14.572783 10.397482 13.48945 12.892274 13.48945 C 16.738629 13.48945 19.946962 15.466013 21.332379 19.385284 L 25.061546 19.385284 C 23.574567 13.48945 18.863629 9.760283 12.892274 9.760283 C 9.348003 9.760283 6.13967 11.283721 3.861024 13.643096 C 1.618836 16.031117 0.124044 19.312367 0.124044 23.012888 Z M 31.4079 9.906116 L 27.634463 9.906116 L 27.634463 35.999868 L 31.4079 35.999868 L 31.4079 24.653513 L 42.462589 24.653513 L 42.462589 35.999868 L 46.262068 35.999868 L 46.262068 9.906116 L 42.462589 9.906116 L 42.462589 20.916534 L 31.4079 20.916534 Z M 58.952173 15.538929 L 62.170923 24.762888 L 55.670923 24.762888 Z M 66.764673 35.999868 L 70.790715 35.999868 L 60.301131 9.533721 L 57.540714 9.533721 L 47.05113 35.999868 L 51.116235 35.999868 C 51.936547 33.830597 53.249047 30.69518 54.249048 28.307159 L 63.61884 28.307159 Z M 75.564153 32.22643 L 75.564153 13.679554 L 81.170924 13.679554 C 87.212591 13.679554 90.275091 18.346221 90.275091 22.966013 C 90.275091 27.596222 87.212591 32.22643 81.170924 32.22643 Z M 71.801132 9.906116 L 71.801132 35.999868 L 81.170924 35.999868 C 89.720404 35.999868 94.012071 29.502472 94.012071 22.966013 C 94.012071 16.442575 89.720404 9.906116 81.170924 9.906116 Z M 115.436551 36.145701 L 118.087593 36.145701 L 126.855823 9.906116 L 122.900093 9.906116 C 120.959989 15.841013 118.681343 22.484242 116.62926 28.718618 L 112.374051 16.55195 L 109.348009 16.55195 L 105.056342 28.755076 L 98.821967 9.906116 L 94.902696 9.906116 L 103.678738 36.145701 L 106.321967 36.145701 C 107.670926 32.189972 109.348009 27.825388 110.842801 23.567576 Z M 132.605823 24.835805 L 144.436553 24.835805 L 144.436553 21.036325 L 132.605823 21.036325 L 132.605823 13.679554 L 144.699574 13.679554 L 144.699574 9.906116 L 128.795927 9.906116 L 128.795927 35.999868 L 144.736032 35.999868 L 144.736032 32.22643 L 132.605823 32.22643 Z M 150.936553 9.906116 L 147.163115 9.906116 L 147.163115 35.999868 L 163.212596 35.999868 L 163.212596 32.22643 L 150.936553 32.22643 Z M 169.3402 9.906116 L 165.566762 9.906116 L 165.566762 35.999868 L 181.616242 35.999868 L 181.616242 32.22643 L 169.3402 32.22643 Z M 169.3402 9.906116 " stroke="#827d7d" stroke-width="1.399999" stroke-opacity="1" stroke-miterlimit="4"/></svg>