<svg xmlns="http://www.w3.org/2000/svg" xmlns:xlink="http://www.w3.org/1999/xlink" width="500" zoomAndPan="magnify" viewBox="0 0 375 374.999991" height="500" preserveAspectRatio="xMidYMid meet" version="1.0"><defs><clipPath id="edfc1f8594"><path d="M 208 78 L 234 78 L 234 115 L 208 115 Z M 208 78 " clip-rule="nonzero"/></clipPath><clipPath id="a1b271052a"><path d="M 191.011719 37.5 L 337.558594 178.335938 L 186.851562 335.15625 L 40.304688 194.324219 Z M 191.011719 37.5 " clip-rule="nonzero"/></clipPath><clipPath id="08046832fa"><path d="M 191.011719 37.5 L 337.558594 178.335938 L 186.851562 335.15625 L 40.304688 194.324219 Z M 191.011719 37.5 " clip-rule="nonzero"/></clipPath><clipPath id="700489554c"><path d="M 191.011719 37.5 L 337.558594 178.335938 L 186.851562 335.15625 L 40.304688 194.324219 Z M 191.011719 37.5 " clip-rule="nonzero"/></clipPath><clipPath id="da58969e94"><path d="M 204 74 L 238 74 L 238 118 L 204 118 Z M 204 74 " clip-rule="nonzero"/></clipPath><clipPath id="e275e28b84"><path d="M 191.011719 37.5 L 337.558594 178.335938 L 186.851562 335.15625 L 40.304688 194.324219 Z M 191.011719 37.5 " clip-rule="nonzero"/></clipPath><clipPath id="6860d54626"><path d="M 191.011719 37.5 L 337.558594 178.335938 L 186.851562 335.15625 L 40.304688 194.324219 Z M 191.011719 37.5 " clip-rule="nonzero"/></clipPath><clipPath id="897fa40687"><path d="M 191.011719 37.5 L 337.558594 178.335938 L 186.851562 335.15625 L 40.304688 194.324219 Z M 191.011719 37.5 " clip-rule="nonzero"/></clipPath><clipPath id="1a47b4e733"><path d="M 186 77 L 226 77 L 226 86 L 186 86 Z M 186 77 " clip-rule="nonzero"/></clipPath><clipPath id="8643177f7f"><path d="M 191.011719 37.5 L 337.558594 178.335938 L 186.851562 335.15625 L 40.304688 194.324219 Z M 191.011719 37.5 " clip-rule="nonzero"/></clipPath><clipPath id="d06d756304"><path d="M 191.011719 37.5 L 337.558594 178.335938 L 186.851562 335.15625 L 40.304688 194.324219 Z M 191.011719 37.5 " clip-rule="nonzero"/></clipPath><clipPath id="1095cdfaac"><path d="M 191.011719 37.5 L 337.558594 178.335938 L 186.851562 335.15625 L 40.304688 194.324219 Z M 191.011719 37.5 " clip-rule="nonzero"/></clipPath><clipPath id="5abffe4302"><path d="M 183 73 L 229 73 L 229 89 L 183 89 Z M 183 73 " clip-rule="nonzero"/></clipPath><clipPath id="777080b2ad"><path d="M 191.011719 37.5 L 337.558594 178.335938 L 186.851562 335.15625 L 40.304688 194.324219 Z M 191.011719 37.5 " clip-rule="nonzero"/></clipPath><clipPath id="42a2cb7d78"><path d="M 191.011719 37.5 L 337.558594 178.335938 L 186.851562 335.15625 L 40.304688 194.324219 Z M 191.011719 37.5 " clip-rule="nonzero"/></clipPath><clipPath id="999ec189bb"><path d="M 191.011719 37.5 L 337.558594 178.335938 L 186.851562 335.15625 L 40.304688 194.324219 Z M 191.011719 37.5 " clip-rule="nonzero"/></clipPath><clipPath id="d892cf82d8"><path d="M 132 100 L 173 100 L 173 124 L 132 124 Z M 132 100 " clip-rule="nonzero"/></clipPath><clipPath id="c35a7ae522"><path d="M 191.011719 37.5 L 337.558594 178.335938 L 186.851562 335.15625 L 40.304688 194.324219 Z M 191.011719 37.5 " clip-rule="nonzero"/></clipPath><clipPath id="43a4b0748c"><path d="M 191.011719 37.5 L 337.558594 178.335938 L 186.851562 335.15625 L 40.304688 194.324219 Z M 191.011719 37.5 " clip-rule="nonzero"/></clipPath><clipPath id="ee0962de74"><path d="M 191.011719 37.5 L 337.558594 178.335938 L 186.851562 335.15625 L 40.304688 194.324219 Z M 191.011719 37.5 " clip-rule="nonzero"/></clipPath><clipPath id="7fbe31b135"><path d="M 128 97 L 176 97 L 176 128 L 128 128 Z M 128 97 " clip-rule="nonzero"/></clipPath><clipPath id="2615acbadf"><path d="M 191.011719 37.5 L 337.558594 178.335938 L 186.851562 335.15625 L 40.304688 194.324219 Z M 191.011719 37.5 " clip-rule="nonzero"/></clipPath><clipPath id="d3e4252c48"><path d="M 191.011719 37.5 L 337.558594 178.335938 L 186.851562 335.15625 L 40.304688 194.324219 Z M 191.011719 37.5 " clip-rule="nonzero"/></clipPath><clipPath id="78c8b0e069"><path d="M 191.011719 37.5 L 337.558594 178.335938 L 186.851562 335.15625 L 40.304688 194.324219 Z M 191.011719 37.5 " clip-rule="nonzero"/></clipPath><clipPath id="2a0d1eed57"><path d="M 210 242 L 231 242 L 231 293 L 210 293 Z M 210 242 " clip-rule="nonzero"/></clipPath><clipPath id="e047a9fc19"><path d="M 191.011719 37.5 L 337.558594 178.335938 L 186.851562 335.15625 L 40.304688 194.324219 Z M 191.011719 37.5 " clip-rule="nonzero"/></clipPath><clipPath id="b47c34c091"><path d="M 191.011719 37.5 L 337.558594 178.335938 L 186.851562 335.15625 L 40.304688 194.324219 Z M 191.011719 37.5 " clip-rule="nonzero"/></clipPath><clipPath id="6cd22487bd"><path d="M 191.011719 37.5 L 337.558594 178.335938 L 186.851562 335.15625 L 40.304688 194.324219 Z M 191.011719 37.5 " clip-rule="nonzero"/></clipPath><clipPath id="d613d376f5"><path d="M 207 239 L 235 239 L 235 297 L 207 297 Z M 207 239 " clip-rule="nonzero"/></clipPath><clipPath id="f9da2229c5"><path d="M 191.011719 37.5 L 337.558594 178.335938 L 186.851562 335.15625 L 40.304688 194.324219 Z M 191.011719 37.5 " clip-rule="nonzero"/></clipPath><clipPath id="30af1aefba"><path d="M 191.011719 37.5 L 337.558594 178.335938 L 186.851562 335.15625 L 40.304688 194.324219 Z M 191.011719 37.5 " clip-rule="nonzero"/></clipPath><clipPath id="baf6069639"><path d="M 191.011719 37.5 L 337.558594 178.335938 L 186.851562 335.15625 L 40.304688 194.324219 Z M 191.011719 37.5 " clip-rule="nonzero"/></clipPath><clipPath id="5475d6571c"><path d="M 138 129 L 229 129 L 229 250 L 138 250 Z M 138 129 " clip-rule="nonzero"/></clipPath><clipPath id="0aed886e0e"><path d="M 191.011719 37.5 L 337.558594 178.335938 L 186.851562 335.15625 L 40.304688 194.324219 Z M 191.011719 37.5 " clip-rule="nonzero"/></clipPath><clipPath id="178aa2aa7c"><path d="M 191.011719 37.5 L 337.558594 178.335938 L 186.851562 335.15625 L 40.304688 194.324219 Z M 191.011719 37.5 " clip-rule="nonzero"/></clipPath><clipPath id="ee3c93d991"><path d="M 191.011719 37.5 L 337.558594 178.335938 L 186.851562 335.15625 L 40.304688 194.324219 Z M 191.011719 37.5 " clip-rule="nonzero"/></clipPath><clipPath id="99bc39606f"><path d="M 135 126 L 232 126 L 232 253 L 135 253 Z M 135 126 " clip-rule="nonzero"/></clipPath><clipPath id="27bb837c2b"><path d="M 191.011719 37.5 L 337.558594 178.335938 L 186.851562 335.15625 L 40.304688 194.324219 Z M 191.011719 37.5 " clip-rule="nonzero"/></clipPath><clipPath id="548d232b00"><path d="M 191.011719 37.5 L 337.558594 178.335938 L 186.851562 335.15625 L 40.304688 194.324219 Z M 191.011719 37.5 " clip-rule="nonzero"/></clipPath><clipPath id="51484ac7cb"><path d="M 191.011719 37.5 L 337.558594 178.335938 L 186.851562 335.15625 L 40.304688 194.324219 Z M 191.011719 37.5 " clip-rule="nonzero"/></clipPath><clipPath id="7962b1fd38"><path d="M 132 255 L 167 255 L 167 276 L 132 276 Z M 132 255 " clip-rule="nonzero"/></clipPath><clipPath id="4b4ee8d631"><path d="M 191.011719 37.5 L 337.558594 178.335938 L 186.851562 335.15625 L 40.304688 194.324219 Z M 191.011719 37.5 " clip-rule="nonzero"/></clipPath><clipPath id="384bdb3f3e"><path d="M 191.011719 37.5 L 337.558594 178.335938 L 186.851562 335.15625 L 40.304688 194.324219 Z M 191.011719 37.5 " clip-rule="nonzero"/></clipPath><clipPath id="d310a5aebe"><path d="M 191.011719 37.5 L 337.558594 178.335938 L 186.851562 335.15625 L 40.304688 194.324219 Z M 191.011719 37.5 " clip-rule="nonzero"/></clipPath><clipPath id="62efd5cefc"><path d="M 129 252 L 171 252 L 171 279 L 129 279 Z M 129 252 " clip-rule="nonzero"/></clipPath><clipPath id="85578a6379"><path d="M 191.011719 37.5 L 337.558594 178.335938 L 186.851562 335.15625 L 40.304688 194.324219 Z M 191.011719 37.5 " clip-rule="nonzero"/></clipPath><clipPath id="14e7e651df"><path d="M 191.011719 37.5 L 337.558594 178.335938 L 186.851562 335.15625 L 40.304688 194.324219 Z M 191.011719 37.5 " clip-rule="nonzero"/></clipPath><clipPath id="26cb0c1e73"><path d="M 191.011719 37.5 L 337.558594 178.335938 L 186.851562 335.15625 L 40.304688 194.324219 Z M 191.011719 37.5 " clip-rule="nonzero"/></clipPath><clipPath id="d8bc89d8cc"><path d="M 90 167 L 126 167 L 126 177 L 90 177 Z M 90 167 " clip-rule="nonzero"/></clipPath><clipPath id="04ae56fe1b"><path d="M 191.011719 37.5 L 337.558594 178.335938 L 186.851562 335.15625 L 40.304688 194.324219 Z M 191.011719 37.5 " clip-rule="nonzero"/></clipPath><clipPath id="b5030de844"><path d="M 191.011719 37.5 L 337.558594 178.335938 L 186.851562 335.15625 L 40.304688 194.324219 Z M 191.011719 37.5 " clip-rule="nonzero"/></clipPath><clipPath id="aa04ba2324"><path d="M 191.011719 37.5 L 337.558594 178.335938 L 186.851562 335.15625 L 40.304688 194.324219 Z M 191.011719 37.5 " clip-rule="nonzero"/></clipPath><clipPath id="95e6ae9482"><path d="M 87 163 L 130 163 L 130 180 L 87 180 Z M 87 163 " clip-rule="nonzero"/></clipPath><clipPath id="8c80e747c7"><path d="M 191.011719 37.5 L 337.558594 178.335938 L 186.851562 335.15625 L 40.304688 194.324219 Z M 191.011719 37.5 " clip-rule="nonzero"/></clipPath><clipPath id="819c90a3c7"><path d="M 191.011719 37.5 L 337.558594 178.335938 L 186.851562 335.15625 L 40.304688 194.324219 Z M 191.011719 37.5 " clip-rule="nonzero"/></clipPath><clipPath id="e34c3619f4"><path d="M 191.011719 37.5 L 337.558594 178.335938 L 186.851562 335.15625 L 40.304688 194.324219 Z M 191.011719 37.5 " clip-rule="nonzero"/></clipPath><clipPath id="dc102500a2"><path d="M 212 109 L 242 109 L 242 130 L 212 130 Z M 212 109 " clip-rule="nonzero"/></clipPath><clipPath id="5f98eb8eee"><path d="M 191.011719 37.5 L 337.558594 178.335938 L 186.851562 335.15625 L 40.304688 194.324219 Z M 191.011719 37.5 " clip-rule="nonzero"/></clipPath><clipPath id="3bf1db4104"><path d="M 191.011719 37.5 L 337.558594 178.335938 L 186.851562 335.15625 L 40.304688 194.324219 Z M 191.011719 37.5 " clip-rule="nonzero"/></clipPath><clipPath id="b978f47ace"><path d="M 191.011719 37.5 L 337.558594 178.335938 L 186.851562 335.15625 L 40.304688 194.324219 Z M 191.011719 37.5 " clip-rule="nonzero"/></clipPath><clipPath id="4d54381c5d"><path d="M 209 105 L 245 105 L 245 133 L 209 133 Z M 209 105 " clip-rule="nonzero"/></clipPath><clipPath id="6b14310a96"><path d="M 191.011719 37.5 L 337.558594 178.335938 L 186.851562 335.15625 L 40.304688 194.324219 Z M 191.011719 37.5 " clip-rule="nonzero"/></clipPath><clipPath id="55212e51e8"><path d="M 191.011719 37.5 L 337.558594 178.335938 L 186.851562 335.15625 L 40.304688 194.324219 Z M 191.011719 37.5 " clip-rule="nonzero"/></clipPath><clipPath id="202b2ec061"><path d="M 191.011719 37.5 L 337.558594 178.335938 L 186.851562 335.15625 L 40.304688 194.324219 Z M 191.011719 37.5 " clip-rule="nonzero"/></clipPath><clipPath id="77260a3f53"><path d="M 215 106 L 242 106 L 242 118 L 215 118 Z M 215 106 " clip-rule="nonzero"/></clipPath><clipPath id="d45a80b944"><path d="M 191.011719 37.5 L 337.558594 178.335938 L 186.851562 335.15625 L 40.304688 194.324219 Z M 191.011719 37.5 " clip-rule="nonzero"/></clipPath><clipPath id="3a65367d9d"><path d="M 191.011719 37.5 L 337.558594 178.335938 L 186.851562 335.15625 L 40.304688 194.324219 Z M 191.011719 37.5 " clip-rule="nonzero"/></clipPath><clipPath id="5500075be4"><path d="M 191.011719 37.5 L 337.558594 178.335938 L 186.851562 335.15625 L 40.304688 194.324219 Z M 191.011719 37.5 " clip-rule="nonzero"/></clipPath><clipPath id="de21413d8f"><path d="M 212 102 L 245 102 L 245 121 L 212 121 Z M 212 102 " clip-rule="nonzero"/></clipPath><clipPath id="a1cdbec321"><path d="M 191.011719 37.5 L 337.558594 178.335938 L 186.851562 335.15625 L 40.304688 194.324219 Z M 191.011719 37.5 " clip-rule="nonzero"/></clipPath><clipPath id="46429adc41"><path d="M 191.011719 37.5 L 337.558594 178.335938 L 186.851562 335.15625 L 40.304688 194.324219 Z M 191.011719 37.5 " clip-rule="nonzero"/></clipPath><clipPath id="6ea4f7d809"><path d="M 191.011719 37.5 L 337.558594 178.335938 L 186.851562 335.15625 L 40.304688 194.324219 Z M 191.011719 37.5 " clip-rule="nonzero"/></clipPath><clipPath id="9dd083d853"><path d="M 90 83 L 225 83 L 225 297 L 90 297 Z M 90 83 " clip-rule="nonzero"/></clipPath><clipPath id="4918e32540"><path d="M 191.011719 37.5 L 337.558594 178.335938 L 186.851562 335.15625 L 40.304688 194.324219 Z M 191.011719 37.5 " clip-rule="nonzero"/></clipPath><clipPath id="7a9a6f193d"><path d="M 191.011719 37.5 L 337.558594 178.335938 L 186.851562 335.15625 L 40.304688 194.324219 Z M 191.011719 37.5 " clip-rule="nonzero"/></clipPath><clipPath id="73efbd19e1"><path d="M 191.011719 37.5 L 337.558594 178.335938 L 186.851562 335.15625 L 40.304688 194.324219 Z M 191.011719 37.5 " clip-rule="nonzero"/></clipPath><clipPath id="7d7cb200f4"><path d="M 87 79 L 228 79 L 228 300 L 87 300 Z M 87 79 " clip-rule="nonzero"/></clipPath><clipPath id="daa25a6355"><path d="M 191.011719 37.5 L 337.558594 178.335938 L 186.851562 335.15625 L 40.304688 194.324219 Z M 191.011719 37.5 " clip-rule="nonzero"/></clipPath><clipPath id="2d84782e6d"><path d="M 191.011719 37.5 L 337.558594 178.335938 L 186.851562 335.15625 L 40.304688 194.324219 Z M 191.011719 37.5 " clip-rule="nonzero"/></clipPath><clipPath id="3a2645516d"><path d="M 191.011719 37.5 L 337.558594 178.335938 L 186.851562 335.15625 L 40.304688 194.324219 Z M 191.011719 37.5 " clip-rule="nonzero"/></clipPath></defs><g clip-path="url(#edfc1f8594)"><g clip-path="url(#a1b271052a)"><g clip-path="url(#08046832fa)"><g clip-path="url(#700489554c)"><path fill="#e6e7e8" d="M 225.625 78.359375 L 233.667969 106.074219 L 214.929688 114.460938 L 208.21875 85.675781 " fill-opacity="1" fill-rule="evenodd"/></g></g></g></g><g clip-path="url(#da58969e94)"><g clip-path="url(#e275e28b84)"><g clip-path="url(#6860d54626)"><g clip-path="url(#897fa40687)"><path stroke-linecap="round" transform="matrix(3.378269, 3.246563, -3.239654, 3.37108, 139.871098, -81.413901)" fill="none" stroke-linejoin="round" d="M 36.824967 11.930511 L 42.161367 15.012575 L 40.518076 19.083011 L 35.228373 15.638477 " stroke="#333333" stroke-width="1.468" stroke-opacity="1" stroke-miterlimit="4"/></g></g></g></g><g clip-path="url(#1a47b4e733)"><g clip-path="url(#8643177f7f)"><g clip-path="url(#d06d756304)"><g clip-path="url(#1095cdfaac)"><path fill="#e6e7e8" d="M 207.578125 85.011719 L 225.496094 78.351562 L 202.03125 77.144531 L 186.617188 82.769531 " fill-opacity="1" fill-rule="evenodd"/></g></g></g></g><g clip-path="url(#5abffe4302)"><g clip-path="url(#777080b2ad)"><g clip-path="url(#42a2cb7d78)"><g clip-path="url(#999ec189bb)"><path stroke-linecap="round" transform="matrix(3.378269, 3.246563, -3.239654, 3.37108, 139.871098, -81.413901)" fill="none" stroke-linejoin="round" d="M 35.031582 15.631011 L 36.803974 11.94841 L 33.014527 15.239833 L 31.474367 18.391709 " stroke="#333333" stroke-width="1.468" stroke-opacity="1" stroke-miterlimit="4"/></g></g></g></g><g clip-path="url(#d892cf82d8)"><g clip-path="url(#c35a7ae522)"><g clip-path="url(#43a4b0748c)"><g clip-path="url(#ee0962de74)"><path fill="#e6e7e8" d="M 132.179688 105.46875 L 147.28125 100.84375 L 172.183594 117.160156 L 156.761719 123.589844 " fill-opacity="1" fill-rule="evenodd"/></g></g></g></g><g clip-path="url(#7fbe31b135)"><g clip-path="url(#2615acbadf)"><g clip-path="url(#d3e4252c48)"><g clip-path="url(#78c8b0e069)"><path stroke-linecap="round" transform="matrix(3.378269, 3.246563, -3.239654, 3.37108, 139.871098, -81.413901)" fill="none" stroke-linejoin="round" d="M 26.454064 29.960094 L 28.094022 27.008747 L 34.339175 25.834382 L 32.916817 29.111512 " stroke="#333333" stroke-width="1.468" stroke-opacity="1" stroke-miterlimit="4"/></g></g></g></g><g clip-path="url(#2a0d1eed57)"><g clip-path="url(#e047a9fc19)"><g clip-path="url(#b47c34c091)"><g clip-path="url(#6cd22487bd)"><path fill="#e6e7e8" d="M 212.457031 292.585938 L 230.75 284.023438 L 228.746094 242.480469 L 210.460938 248.964844 Z M 212.457031 292.585938 " fill-opacity="1" fill-rule="evenodd"/></g></g></g></g><g clip-path="url(#d613d376f5)"><g clip-path="url(#f9da2229c5)"><g clip-path="url(#30af1aefba)"><g clip-path="url(#baf6069639)"><path stroke-linecap="round" transform="matrix(3.378269, 3.246563, -3.239654, 3.37108, 139.871098, -81.413901)" fill="none" stroke-linejoin="round" d="M 66.48009 46.919104 L 68.028856 42.887557 L 61.57678 36.777972 L 59.721886 40.487883 Z M 66.48009 46.919104 " stroke="#333333" stroke-width="1.468" stroke-opacity="1" stroke-miterlimit="4"/></g></g></g></g><g clip-path="url(#5475d6571c)"><g clip-path="url(#0aed886e0e)"><g clip-path="url(#178aa2aa7c)"><g clip-path="url(#ee3c93d991)"><path fill="#e6e7e8" d="M 184.484375 129.648438 C 172.15625 127.421875 107.207031 237.390625 228.488281 242.472656 L 210.152344 249.007812 C 109.546875 247.214844 128.90625 140.925781 184.484375 129.648438 Z M 184.484375 129.648438 " fill-opacity="1" fill-rule="evenodd"/></g></g></g></g><g clip-path="url(#99bc39606f)"><g clip-path="url(#27bb837c2b)"><g clip-path="url(#548d232b00)"><g clip-path="url(#51484ac7cb)"><path stroke-linecap="round" transform="matrix(3.378269, 3.246563, -3.239654, 3.37108, 139.871098, -81.413901)" fill="none" stroke-linejoin="round" d="M 38.078975 25.937253 C 35.852551 27.420951 42.120732 54.005522 61.535951 36.814976 L 59.680752 40.540244 C 43.933687 55.173796 31.193988 35.913253 38.078975 25.937253 Z M 38.078975 25.937253 " stroke="#333333" stroke-width="1.468" stroke-opacity="1" stroke-miterlimit="4"/></g></g></g></g><g clip-path="url(#7962b1fd38)"><g clip-path="url(#4b4ee8d631)"><g clip-path="url(#384bdb3f3e)"><g clip-path="url(#d310a5aebe)"><path fill="#e6e7e8" d="M 160.390625 255.667969 L 132.792969 275.457031 L 152.480469 268.914062 L 166.988281 258 Z M 160.390625 255.667969 " fill-opacity="1" fill-rule="evenodd"/></g></g></g></g><g clip-path="url(#62efd5cefc)"><g clip-path="url(#85578a6379)"><g clip-path="url(#14e7e651df)"><g clip-path="url(#26cb0c1e73)"><path stroke-linecap="round" transform="matrix(3.378269, 3.246563, -3.239654, 3.37108, 139.871098, -81.413901)" fill="none" stroke-linejoin="round" d="M 53.00801 48.942191 L 51.687643 56.084033 L 53.749674 52.157255 L 54.368185 48.324032 Z M 53.00801 48.942191 " stroke="#333333" stroke-width="1.468" stroke-opacity="1" stroke-miterlimit="4"/></g></g></g></g><g clip-path="url(#d8bc89d8cc)"><g clip-path="url(#04ae56fe1b)"><g clip-path="url(#b5030de844)"><g clip-path="url(#aa04ba2324)"><path fill="#e6e7e8" d="M 90.53125 176.339844 L 108.183594 169.207031 L 125.796875 167.136719 L 124.046875 173.394531 Z M 90.53125 176.339844 " fill-opacity="1" fill-rule="evenodd"/></g></g></g></g><g clip-path="url(#95e6ae9482)"><g clip-path="url(#8c80e747c7)"><g clip-path="url(#819c90a3c7)"><g clip-path="url(#e34c3619f4)"><path stroke-linecap="round" transform="matrix(3.378269, 3.246563, -3.239654, 3.37108, 139.871098, -81.413901)" fill="none" stroke-linejoin="round" d="M 30.525871 47.061949 L 32.187487 43.345825 L 34.591774 40.416205 L 35.247925 41.640612 Z M 30.525871 47.061949 " stroke="#333333" stroke-width="1.468" stroke-opacity="1" stroke-miterlimit="4"/></g></g></g></g><g clip-path="url(#dc102500a2)"><g clip-path="url(#5f98eb8eee)"><g clip-path="url(#3bf1db4104)"><g clip-path="url(#b978f47ace)"><path fill="#e6e7e8" d="M 241.277344 109.40625 L 229.878906 121.363281 L 212.765625 129.140625 L 223.761719 117.511719 " fill-opacity="1" fill-rule="evenodd"/></g></g></g></g><g clip-path="url(#4d54381c5d)"><g clip-path="url(#6b14310a96)"><g clip-path="url(#55212e51e8)"><g clip-path="url(#202b2ec061)"><path stroke-linecap="round" transform="matrix(3.378269, 3.246563, -3.239654, 3.37108, 139.871098, -81.413901)" fill="none" stroke-linejoin="round" d="M 43.82512 14.398692 L 43.839344 17.931937 L 42.356002 21.667568 L 42.328387 18.244554 " stroke="#333333" stroke-width="1.468" stroke-opacity="1" stroke-miterlimit="4"/></g></g></g></g><g clip-path="url(#77260a3f53)"><g clip-path="url(#d45a80b944)"><g clip-path="url(#3a65367d9d)"><g clip-path="url(#5500075be4)"><path fill="#e6e7e8" d="M 233.246094 106.191406 L 241.382812 109.210938 L 223.753906 117.199219 L 215.503906 114.257812 Z M 233.246094 106.191406 " fill-opacity="1" fill-rule="evenodd"/></g></g></g></g><g clip-path="url(#de21413d8f)"><g clip-path="url(#a1cdbec321)"><g clip-path="url(#46429adc41)"><g clip-path="url(#6ea4f7d809)"><path stroke-linecap="round" transform="matrix(3.378269, 3.246563, -3.239654, 3.37108, 139.871098, -81.413901)" fill="none" stroke-linejoin="round" d="M 42.113776 15.093171 L 43.812466 14.352941 L 42.28097 18.197519 L 40.576401 18.966585 Z M 42.113776 15.093171 " stroke="#333333" stroke-width="1.468" stroke-opacity="1" stroke-miterlimit="4"/></g></g></g></g><g clip-path="url(#9dd083d853)"><g clip-path="url(#4918e32540)"><g clip-path="url(#7a9a6f193d)"><g clip-path="url(#73efbd19e1)"><path fill="#827d7d" d="M 90.535156 176.746094 L 90.480469 201.640625 L 123.597656 207.386719 L 132.753906 229.792969 L 115.09375 258.8125 L 132.304688 275.195312 L 160.664062 255.148438 L 182.683594 264.167969 L 190.304688 296.441406 L 212.222656 292.554688 L 210.058594 249.179688 C 100.230469 246.5 128.945312 115.550781 212.277344 129.300781 L 224.175781 116.917969 L 215.433594 114.1875 L 208.285156 84.96875 L 185.667969 83.175781 L 178.371094 113.726562 L 156.574219 123.402344 L 131 105.960938 L 114.292969 122.460938 L 131.671875 150.5 L 123.148438 172.078125 Z M 90.535156 176.746094 " fill-opacity="1" fill-rule="evenodd"/></g></g></g></g><g clip-path="url(#7d7cb200f4)"><g clip-path="url(#daa25a6355)"><g clip-path="url(#2d84782e6d)"><g clip-path="url(#3a2645516d)"><path stroke-linecap="round" transform="matrix(3.378269, 3.246563, -3.239654, 3.37108, 139.871098, -81.413901)" fill="none" stroke-linejoin="round" d="M 30.586551 47.12402 L 34.259735 50.971248 L 40.205828 46.94931 L 44.928471 49.047716 L 46.502433 56.14027 L 51.573797 56.116037 L 52.973256 48.821547 L 57.695663 46.949132 L 63.641302 50.796726 L 66.439401 46.94902 L 59.691744 40.580643 C 42.394293 56.444278 27.447345 31.994245 42.304547 21.764631 L 42.304298 18.091623 L 40.555183 18.966163 L 35.134031 15.5196 L 31.388374 18.595037 L 34.783566 24.387861 L 32.860234 29.110384 L 26.345313 30.210831 L 26.214463 35.231423 L 33.035493 36.979871 L 34.914987 41.570753 Z M 30.586551 47.12402 " stroke="#333333" stroke-width="1.468" stroke-opacity="1" stroke-miterlimit="4"/></g></g></g></g></svg>